<?xml version="1.0" standalone="no"?>
 <!DOCTYPE svg PUBLIC "-//W3C//DTD SVG 1.1//EN" 
 "http://www.w3.org/Graphics/SVG/1.1/DTD/svg11.dtd"> 
<svg
  xmlns:svg="http://www.w3.org/2000/svg"
  xmlns="http://www.w3.org/2000/svg"
  xmlns:xlink="http://www.w3.org/1999/xlink"
  version="1.1"
  width="3.280000cm" height="6.005000cm" viewBox="160250000 85025000 32800000 60050000">
<title>SVG Picture created as ESP32D0M-F_SilkS.svg date 2022/06/28 15:57:04 </title>
  <desc>Picture generated by PCBNEW </desc>
<g style="fill:#000000; fill-opacity:1.000000;stroke:#000000; stroke-opacity:1.000000;
stroke-linecap:round; stroke-linejoin:round;"
 transform="translate(0 0) scale(1 1)">
</g>
<g style="fill:#000000; fill-opacity:0.0; 
stroke:#000000; stroke-width:0.000000; stroke-opacity:1; 
stroke-linecap:round; stroke-linejoin:round;">
</g>
<g style="fill:#000000; fill-opacity:0.0; 
stroke:#000000; stroke-width:150000.000000; stroke-opacity:1; 
stroke-linecap:round; stroke-linejoin:round;">
<text x="164950000.000000" y="134280000.000000"
textLength="3204762.000000" font-size="1333333.000000" lengthAdjust="spacingAndGlyphs"
text-anchor="middle" opacity="0">R10</text>
<g class="stroked-text"><desc>R10</desc>
<path d="M164307142 134232380
L163973809 133756190
" />
<path d="M163735714 134232380
L163735714 133232380
L164116666 133232380
L164211904 133280000
L164259523 133327619
L164307142 133422857
L164307142 133565714
L164259523 133660952
L164211904 133708571
L164116666 133756190
L163735714 133756190
" />
<path d="M165259523 134232380
L164688095 134232380
" />
<path d="M164973809 134232380
L164973809 133232380
L164878571 133375238
L164783333 133470476
L164688095 133518095
" />
<path d="M165878571 133232380
L165973809 133232380
L166069047 133280000
L166116666 133327619
L166164285 133422857
L166211904 133613333
L166211904 133851428
L166164285 134041904
L166116666 134137142
L166069047 134184761
L165973809 134232380
L165878571 134232380
L165783333 134184761
L165735714 134137142
L165688095 134041904
L165640476 133851428
L165640476 133613333
L165688095 133422857
L165735714 133327619
L165783333 133280000
L165878571 133232380
" />
</g><text x="163100000.000000" y="128670000.000000"
textLength="2195000.000000" font-size="1333333.000000" lengthAdjust="spacingAndGlyphs"
text-anchor="middle" opacity="0">Q1</text>
<g class="stroked-text"><desc>Q1</desc>
<path d="M163004761 128717619
L162909523 128670000
L162814285 128574761
L162671428 128431904
L162576190 128384285
L162480952 128384285
" />
<path d="M162528571 128622380
L162433333 128574761
L162338095 128479523
L162290476 128289047
L162290476 127955714
L162338095 127765238
L162433333 127670000
L162528571 127622380
L162719047 127622380
L162814285 127670000
L162909523 127765238
L162957142 127955714
L162957142 128289047
L162909523 128479523
L162814285 128574761
L162719047 128622380
L162528571 128622380
" />
<path d="M163909523 128622380
L163338095 128622380
" />
<path d="M163623809 128622380
L163623809 127622380
L163528571 127765238
L163433333 127860476
L163338095 127908095
" />
</g><text x="166800000.000000" y="111650000.000000"
textLength="2147381.000000" font-size="1333333.000000" lengthAdjust="spacingAndGlyphs"
text-anchor="middle" opacity="0">R9</text>
<g class="stroked-text"><desc>R9</desc>
<path d="M166633333 111602380
L166300000 111126190
" />
<path d="M166061904 111602380
L166061904 110602380
L166442857 110602380
L166538095 110650000
L166585714 110697619
L166633333 110792857
L166633333 110935714
L166585714 111030952
L166538095 111078571
L166442857 111126190
L166061904 111126190
" />
<path d="M167109523 111602380
L167300000 111602380
L167395238 111554761
L167442857 111507142
L167538095 111364285
L167585714 111173809
L167585714 110792857
L167538095 110697619
L167490476 110650000
L167395238 110602380
L167204761 110602380
L167109523 110650000
L167061904 110697619
L167014285 110792857
L167014285 111030952
L167061904 111126190
L167109523 111173809
L167204761 111221428
L167395238 111221428
L167490476 111173809
L167538095 111126190
L167585714 111030952
" />
</g><text x="171450000.000000" y="133715000.000000"
textLength="1909286.000000" font-size="1333333.000000" lengthAdjust="spacingAndGlyphs"
text-anchor="middle" opacity="0">J1</text>
<g class="stroked-text"><desc>J1</desc>
<path d="M171116666 132667380
L171116666 133381666
L171069047 133524523
L170973809 133619761
L170830952 133667380
L170735714 133667380
" />
<path d="M172116666 133667380
L171545238 133667380
" />
<path d="M171830952 133667380
L171830952 132667380
L171735714 132810238
L171640476 132905476
L171545238 132953095
" />
</g><g transform="rotate(-90.000000 170600000.000000 130800000.000000)">
<text x="170600000.000000" y="131300000.000000"
textLength="2147381.000000" font-size="1333333.000000" lengthAdjust="spacingAndGlyphs"
text-anchor="middle" opacity="0">D3</text>
</g>
<g class="stroked-text"><desc>D3</desc>
<path d="M171052380 131538095
L170052380 131538095
L170052380 131300000
L170100000 131157142
L170195238 131061904
L170290476 131014285
L170480952 130966666
L170623809 130966666
L170814285 131014285
L170909523 131061904
L171004761 131157142
L171052380 131300000
L171052380 131538095
" />
<path d="M170052380 130633333
L170052380 130014285
L170433333 130347619
L170433333 130204761
L170480952 130109523
L170528571 130061904
L170623809 130014285
L170861904 130014285
L170957142 130061904
L171004761 130109523
L171052380 130204761
L171052380 130490476
L171004761 130585714
L170957142 130633333
" />
</g><g transform="rotate(-90.000000 185100000.000000 130662500.000000)">
<text x="185100000.000000" y="131162500.000000"
textLength="2147381.000000" font-size="1333333.000000" lengthAdjust="spacingAndGlyphs"
text-anchor="middle" opacity="0">D2</text>
</g>
<g class="stroked-text"><desc>D2</desc>
<path d="M185552380 131400595
L184552380 131400595
L184552380 131162500
L184600000 131019642
L184695238 130924404
L184790476 130876785
L184980952 130829166
L185123809 130829166
L185314285 130876785
L185409523 130924404
L185504761 131019642
L185552380 131162500
L185552380 131400595
" />
<path d="M184647619 130448214
L184600000 130400595
L184552380 130305357
L184552380 130067261
L184600000 129972023
L184647619 129924404
L184742857 129876785
L184838095 129876785
L184980952 129924404
L185552380 130495833
L185552380 129876785
" />
</g><g transform="rotate(-90.000000 187925000.000000 105750000.000000)">
<text x="187925000.000000" y="106250000.000000"
textLength="2147381.000000" font-size="1333333.000000" lengthAdjust="spacingAndGlyphs"
text-anchor="middle" opacity="0">R4</text>
</g>
<g class="stroked-text"><desc>R4</desc>
<path d="M188377380 105916666
L187901190 106250000
" />
<path d="M188377380 106488095
L187377380 106488095
L187377380 106107142
L187425000 106011904
L187472619 105964285
L187567857 105916666
L187710714 105916666
L187805952 105964285
L187853571 106011904
L187901190 106107142
L187901190 106488095
" />
<path d="M187710714 105059523
L188377380 105059523
" />
<path d="M187329761 105297619
L188044047 105535714
L188044047 104916666
" />
</g><g transform="rotate(-90.000000 168675000.000000 98000000.000000)">
<text x="168675000.000000" y="98400000.000000"
textLength="1756905.000000" font-size="1066666.000000" lengthAdjust="spacingAndGlyphs"
text-anchor="middle" opacity="0">R1</text>
</g>
<g class="stroked-text"><desc>R1</desc>
<path d="M169036904 98133333
L168655952 98400000
" />
<path d="M169036904 98590476
L168236904 98590476
L168236904 98285714
L168275000 98209523
L168313095 98171428
L168389285 98133333
L168503571 98133333
L168579761 98171428
L168617857 98209523
L168655952 98285714
L168655952 98590476
" />
<path d="M169036904 97371428
L169036904 97828571
" />
<path d="M169036904 97600000
L168236904 97600000
L168351190 97676190
L168427380 97752380
L168465476 97828571
" />
</g><g transform="rotate(-90.000000 171250000.000000 123650000.000000)">
<text x="171250000.000000" y="124150000.000000"
textLength="3099762.000000" font-size="1333333.000000" lengthAdjust="spacingAndGlyphs"
text-anchor="middle" opacity="0">C16</text>
</g>
<g class="stroked-text"><desc>C16</desc>
<path d="M171607142 124292857
L171654761 124340476
L171702380 124483333
L171702380 124578571
L171654761 124721428
L171559523 124816666
L171464285 124864285
L171273809 124911904
L171130952 124911904
L170940476 124864285
L170845238 124816666
L170750000 124721428
L170702380 124578571
L170702380 124483333
L170750000 124340476
L170797619 124292857
" />
<path d="M171702380 123340476
L171702380 123911904
" />
<path d="M171702380 123626190
L170702380 123626190
L170845238 123721428
L170940476 123816666
L170988095 123911904
" />
<path d="M170702380 122483333
L170702380 122673809
L170750000 122769047
L170797619 122816666
L170940476 122911904
L171130952 122959523
L171511904 122959523
L171607142 122911904
L171654761 122864285
L171702380 122769047
L171702380 122578571
L171654761 122483333
L171607142 122435714
L171511904 122388095
L171273809 122388095
L171178571 122435714
L171130952 122483333
L171083333 122578571
L171083333 122769047
L171130952 122864285
L171178571 122911904
L171273809 122959523
" />
</g><g transform="rotate(-90.000000 167650000.000000 98000000.000000)">
<text x="167650000.000000" y="98400000.000000"
textLength="1756905.000000" font-size="1066666.000000" lengthAdjust="spacingAndGlyphs"
text-anchor="middle" opacity="0">C2</text>
</g>
<g class="stroked-text"><desc>C2</desc>
<path d="M167935714 98133333
L167973809 98171428
L168011904 98285714
L168011904 98361904
L167973809 98476190
L167897619 98552380
L167821428 98590476
L167669047 98628571
L167554761 98628571
L167402380 98590476
L167326190 98552380
L167250000 98476190
L167211904 98361904
L167211904 98285714
L167250000 98171428
L167288095 98133333
" />
<path d="M167288095 97828571
L167250000 97790476
L167211904 97714285
L167211904 97523809
L167250000 97447619
L167288095 97409523
L167364285 97371428
L167440476 97371428
L167554761 97409523
L168011904 97866666
L168011904 97371428
" />
</g><text x="176000000.000000" y="95150000.000000"
textLength="1956905.000000" font-size="1333333.000000" lengthAdjust="spacingAndGlyphs"
text-anchor="middle" opacity="0">L1</text>
<g class="stroked-text"><desc>L1</desc>
<path d="M175833333 95102380
L175357142 95102380
L175357142 94102380
" />
<path d="M176690476 95102380
L176119047 95102380
" />
<path d="M176404761 95102380
L176404761 94102380
L176309523 94245238
L176214285 94340476
L176119047 94388095
" />
</g><g transform="rotate(-90.000000 186800000.000000 130825000.000000)">
<text x="186800000.000000" y="131325000.000000"
textLength="2147381.000000" font-size="1333333.000000" lengthAdjust="spacingAndGlyphs"
text-anchor="middle" opacity="0">D1</text>
</g>
<g class="stroked-text"><desc>D1</desc>
<path d="M187252380 131563095
L186252380 131563095
L186252380 131325000
L186300000 131182142
L186395238 131086904
L186490476 131039285
L186680952 130991666
L186823809 130991666
L187014285 131039285
L187109523 131086904
L187204761 131182142
L187252380 131325000
L187252380 131563095
" />
<path d="M187252380 130039285
L187252380 130610714
" />
<path d="M187252380 130325000
L186252380 130325000
L186395238 130420238
L186490476 130515476
L186538095 130610714
" />
</g><text x="183050000.000000" y="140000000.000000"
textLength="1909286.000000" font-size="1333333.000000" lengthAdjust="spacingAndGlyphs"
text-anchor="middle" opacity="0">J2</text>
<g class="stroked-text"><desc>J2</desc>
<path d="M182716666 138952380
L182716666 139666666
L182669047 139809523
L182573809 139904761
L182430952 139952380
L182335714 139952380
" />
<path d="M183145238 139047619
L183192857 139000000
L183288095 138952380
L183526190 138952380
L183621428 139000000
L183669047 139047619
L183716666 139142857
L183716666 139238095
L183669047 139380952
L183097619 139952380
L183716666 139952380
" />
</g><g transform="rotate(-90.000000 169700000.000000 98000000.000000)">
<text x="169700000.000000" y="98400000.000000"
textLength="1756905.000000" font-size="1066666.000000" lengthAdjust="spacingAndGlyphs"
text-anchor="middle" opacity="0">R2</text>
</g>
<g class="stroked-text"><desc>R2</desc>
<path d="M170061904 98133333
L169680952 98400000
" />
<path d="M170061904 98590476
L169261904 98590476
L169261904 98285714
L169300000 98209523
L169338095 98171428
L169414285 98133333
L169528571 98133333
L169604761 98171428
L169642857 98209523
L169680952 98285714
L169680952 98590476
" />
<path d="M169338095 97828571
L169300000 97790476
L169261904 97714285
L169261904 97523809
L169300000 97447619
L169338095 97409523
L169414285 97371428
L169490476 97371428
L169604761 97409523
L170061904 97866666
L170061904 97371428
" />
</g><text x="185375000.000000" y="110650000.000000"
textLength="3099762.000000" font-size="1333333.000000" lengthAdjust="spacingAndGlyphs"
text-anchor="middle" opacity="0">C14</text>
<g class="stroked-text"><desc>C14</desc>
<path d="M184732142 110507142
L184684523 110554761
L184541666 110602380
L184446428 110602380
L184303571 110554761
L184208333 110459523
L184160714 110364285
L184113095 110173809
L184113095 110030952
L184160714 109840476
L184208333 109745238
L184303571 109650000
L184446428 109602380
L184541666 109602380
L184684523 109650000
L184732142 109697619
" />
<path d="M185684523 110602380
L185113095 110602380
" />
<path d="M185398809 110602380
L185398809 109602380
L185303571 109745238
L185208333 109840476
L185113095 109888095
" />
<path d="M186541666 109935714
L186541666 110602380
" />
<path d="M186303571 109554761
L186065476 110269047
L186684523 110269047
" />
</g><text x="167750000.000000" y="116350000.000000"
textLength="3099762.000000" font-size="1333333.000000" lengthAdjust="spacingAndGlyphs"
text-anchor="middle" opacity="0">C11</text>
<g class="stroked-text"><desc>C11</desc>
<path d="M167107142 116207142
L167059523 116254761
L166916666 116302380
L166821428 116302380
L166678571 116254761
L166583333 116159523
L166535714 116064285
L166488095 115873809
L166488095 115730952
L166535714 115540476
L166583333 115445238
L166678571 115350000
L166821428 115302380
L166916666 115302380
L167059523 115350000
L167107142 115397619
" />
<path d="M168059523 116302380
L167488095 116302380
" />
<path d="M167773809 116302380
L167773809 115302380
L167678571 115445238
L167583333 115540476
L167488095 115588095
" />
<path d="M169011904 116302380
L168440476 116302380
" />
<path d="M168726190 116302380
L168726190 115302380
L168630952 115445238
L168535714 115540476
L168440476 115588095
" />
</g><g transform="rotate(-90.000000 170775000.000000 98025000.000000)">
<text x="170775000.000000" y="98425000.000000"
textLength="1756905.000000" font-size="1066666.000000" lengthAdjust="spacingAndGlyphs"
text-anchor="middle" opacity="0">C7</text>
</g>
<g class="stroked-text"><desc>C7</desc>
<path d="M171060714 98158333
L171098809 98196428
L171136904 98310714
L171136904 98386904
L171098809 98501190
L171022619 98577380
L170946428 98615476
L170794047 98653571
L170679761 98653571
L170527380 98615476
L170451190 98577380
L170375000 98501190
L170336904 98386904
L170336904 98310714
L170375000 98196428
L170413095 98158333
" />
<path d="M170336904 97891666
L170336904 97358333
L171136904 97701190
" />
</g><g transform="rotate(-90.000000 163350000.000000 108300000.000000)">
<text x="163350000.000000" y="108800000.000000"
textLength="2147381.000000" font-size="1333333.000000" lengthAdjust="spacingAndGlyphs"
text-anchor="middle" opacity="0">D4</text>
</g>
<g class="stroked-text"><desc>D4</desc>
<path d="M163802380 109038095
L162802380 109038095
L162802380 108800000
L162850000 108657142
L162945238 108561904
L163040476 108514285
L163230952 108466666
L163373809 108466666
L163564285 108514285
L163659523 108561904
L163754761 108657142
L163802380 108800000
L163802380 109038095
" />
<path d="M163135714 107609523
L163802380 107609523
" />
<path d="M162754761 107847619
L163469047 108085714
L163469047 107466666
" />
</g><g transform="rotate(-90.000000 187925000.000000 104000000.000000)">
<text x="187925000.000000" y="104500000.000000"
textLength="2147381.000000" font-size="1333333.000000" lengthAdjust="spacingAndGlyphs"
text-anchor="middle" opacity="0">C4</text>
</g>
<g class="stroked-text"><desc>C4</desc>
<path d="M188282142 104166666
L188329761 104214285
L188377380 104357142
L188377380 104452380
L188329761 104595238
L188234523 104690476
L188139285 104738095
L187948809 104785714
L187805952 104785714
L187615476 104738095
L187520238 104690476
L187425000 104595238
L187377380 104452380
L187377380 104357142
L187425000 104214285
L187472619 104166666
" />
<path d="M187710714 103309523
L188377380 103309523
" />
<path d="M187329761 103547619
L188044047 103785714
L188044047 103166666
" />
</g><text x="176250000.000000" y="115100000.000000"
textLength="2195000.000000" font-size="1333333.000000" lengthAdjust="spacingAndGlyphs"
text-anchor="middle" opacity="0">U4</text>
<g class="stroked-text"><desc>U4</desc>
<path d="M175488095 114052380
L175488095 114861904
L175535714 114957142
L175583333 115004761
L175678571 115052380
L175869047 115052380
L175964285 115004761
L176011904 114957142
L176059523 114861904
L176059523 114052380
" />
<path d="M176964285 114385714
L176964285 115052380
" />
<path d="M176726190 114004761
L176488095 114719047
L177107142 114719047
" />
</g><text x="184250000.000000" y="101950000.000000"
textLength="2147381.000000" font-size="1333333.000000" lengthAdjust="spacingAndGlyphs"
text-anchor="middle" opacity="0">C5</text>
<g class="stroked-text"><desc>C5</desc>
<path d="M184083333 101807142
L184035714 101854761
L183892857 101902380
L183797619 101902380
L183654761 101854761
L183559523 101759523
L183511904 101664285
L183464285 101473809
L183464285 101330952
L183511904 101140476
L183559523 101045238
L183654761 100950000
L183797619 100902380
L183892857 100902380
L184035714 100950000
L184083333 100997619
" />
<path d="M184988095 100902380
L184511904 100902380
L184464285 101378571
L184511904 101330952
L184607142 101283333
L184845238 101283333
L184940476 101330952
L184988095 101378571
L185035714 101473809
L185035714 101711904
L184988095 101807142
L184940476 101854761
L184845238 101902380
L184607142 101902380
L184511904 101854761
L184464285 101807142
" />
</g><text x="170600000.000000" y="96700000.000000"
textLength="2147381.000000" font-size="1333333.000000" lengthAdjust="spacingAndGlyphs"
text-anchor="middle" opacity="0">C3</text>
<g class="stroked-text"><desc>C3</desc>
<path d="M170433333 96557142
L170385714 96604761
L170242857 96652380
L170147619 96652380
L170004761 96604761
L169909523 96509523
L169861904 96414285
L169814285 96223809
L169814285 96080952
L169861904 95890476
L169909523 95795238
L170004761 95700000
L170147619 95652380
L170242857 95652380
L170385714 95700000
L170433333 95747619
" />
<path d="M170766666 95652380
L171385714 95652380
L171052380 96033333
L171195238 96033333
L171290476 96080952
L171338095 96128571
L171385714 96223809
L171385714 96461904
L171338095 96557142
L171290476 96604761
L171195238 96652380
L170909523 96652380
L170814285 96604761
L170766666 96557142
" />
</g><text x="182100000.000000" y="110550000.000000"
textLength="2004524.000000" font-size="1333333.000000" lengthAdjust="spacingAndGlyphs"
text-anchor="middle" opacity="0">Y1</text>
<g class="stroked-text"><desc>Y1</desc>
<path d="M181623809 110026190
L181623809 110502380
" />
<path d="M181290476 109502380
L181623809 110026190
L181957142 109502380
" />
<path d="M182814285 110502380
L182242857 110502380
" />
<path d="M182528571 110502380
L182528571 109502380
L182433333 109645238
L182338095 109740476
L182242857 109788095
" />
</g><g transform="rotate(-90.000000 180150000.000000 103550000.000000)">
<text x="180150000.000000" y="104050000.000000"
textLength="3099762.000000" font-size="1333333.000000" lengthAdjust="spacingAndGlyphs"
text-anchor="middle" opacity="0">C13</text>
</g>
<g class="stroked-text"><desc>C13</desc>
<path d="M180507142 104192857
L180554761 104240476
L180602380 104383333
L180602380 104478571
L180554761 104621428
L180459523 104716666
L180364285 104764285
L180173809 104811904
L180030952 104811904
L179840476 104764285
L179745238 104716666
L179650000 104621428
L179602380 104478571
L179602380 104383333
L179650000 104240476
L179697619 104192857
" />
<path d="M180602380 103240476
L180602380 103811904
" />
<path d="M180602380 103526190
L179602380 103526190
L179745238 103621428
L179840476 103716666
L179888095 103811904
" />
<path d="M179602380 102907142
L179602380 102288095
L179983333 102621428
L179983333 102478571
L180030952 102383333
L180078571 102335714
L180173809 102288095
L180411904 102288095
L180507142 102335714
L180554761 102383333
L180602380 102478571
L180602380 102764285
L180554761 102859523
L180507142 102907142
" />
</g><text x="174750000.000000" y="111250000.000000"
textLength="2195000.000000" font-size="1333333.000000" lengthAdjust="spacingAndGlyphs"
text-anchor="middle" opacity="0">U2</text>
<g class="stroked-text"><desc>U2</desc>
<path d="M173988095 110202380
L173988095 111011904
L174035714 111107142
L174083333 111154761
L174178571 111202380
L174369047 111202380
L174464285 111154761
L174511904 111107142
L174559523 111011904
L174559523 110202380
" />
<path d="M174988095 110297619
L175035714 110250000
L175130952 110202380
L175369047 110202380
L175464285 110250000
L175511904 110297619
L175559523 110392857
L175559523 110488095
L175511904 110630952
L174940476 111202380
L175559523 111202380
" />
</g><g transform="rotate(-90.000000 166050000.000000 100775000.000000)">
<text x="166050000.000000" y="101275000.000000"
textLength="3242619.000000" font-size="1333333.000000" lengthAdjust="spacingAndGlyphs"
text-anchor="middle" opacity="0">SW2</text>
</g>
<g class="stroked-text"><desc>SW2</desc>
<path d="M166454761 102108333
L166502380 101965476
L166502380 101727380
L166454761 101632142
L166407142 101584523
L166311904 101536904
L166216666 101536904
L166121428 101584523
L166073809 101632142
L166026190 101727380
L165978571 101917857
L165930952 102013095
L165883333 102060714
L165788095 102108333
L165692857 102108333
L165597619 102060714
L165550000 102013095
L165502380 101917857
L165502380 101679761
L165550000 101536904
" />
<path d="M165502380 101203571
L166502380 100965476
L165788095 100775000
L166502380 100584523
L165502380 100346428
" />
<path d="M165597619 100013095
L165550000 99965476
L165502380 99870238
L165502380 99632142
L165550000 99536904
L165597619 99489285
L165692857 99441666
L165788095 99441666
L165930952 99489285
L166502380 100060714
L166502380 99441666
" />
</g><g transform="rotate(-90.000000 171800000.000000 98025000.000000)">
<text x="171800000.000000" y="98425000.000000"
textLength="1756905.000000" font-size="1066666.000000" lengthAdjust="spacingAndGlyphs"
text-anchor="middle" opacity="0">R7</text>
</g>
<g class="stroked-text"><desc>R7</desc>
<path d="M172161904 98158333
L171780952 98425000
" />
<path d="M172161904 98615476
L171361904 98615476
L171361904 98310714
L171400000 98234523
L171438095 98196428
L171514285 98158333
L171628571 98158333
L171704761 98196428
L171742857 98234523
L171780952 98310714
L171780952 98615476
" />
<path d="M171361904 97891666
L171361904 97358333
L172161904 97701190
" />
</g><g transform="rotate(-90.000000 162550000.000000 119700000.000000)">
<text x="162550000.000000" y="120200000.000000"
textLength="3099762.000000" font-size="1333333.000000" lengthAdjust="spacingAndGlyphs"
text-anchor="middle" opacity="0">C12</text>
</g>
<g class="stroked-text"><desc>C12</desc>
<path d="M162907142 120342857
L162954761 120390476
L163002380 120533333
L163002380 120628571
L162954761 120771428
L162859523 120866666
L162764285 120914285
L162573809 120961904
L162430952 120961904
L162240476 120914285
L162145238 120866666
L162050000 120771428
L162002380 120628571
L162002380 120533333
L162050000 120390476
L162097619 120342857
" />
<path d="M163002380 119390476
L163002380 119961904
" />
<path d="M163002380 119676190
L162002380 119676190
L162145238 119771428
L162240476 119866666
L162288095 119961904
" />
<path d="M162097619 119009523
L162050000 118961904
L162002380 118866666
L162002380 118628571
L162050000 118533333
L162097619 118485714
L162192857 118438095
L162288095 118438095
L162430952 118485714
L163002380 119057142
L163002380 118438095
" />
</g><g transform="rotate(-90.000000 183570000.000000 127400000.000000)">
<text x="183570000.000000" y="127900000.000000"
textLength="2147381.000000" font-size="1333333.000000" lengthAdjust="spacingAndGlyphs"
text-anchor="middle" opacity="0">R6</text>
</g>
<g class="stroked-text"><desc>R6</desc>
<path d="M184022380 127566666
L183546190 127900000
" />
<path d="M184022380 128138095
L183022380 128138095
L183022380 127757142
L183070000 127661904
L183117619 127614285
L183212857 127566666
L183355714 127566666
L183450952 127614285
L183498571 127661904
L183546190 127757142
L183546190 128138095
" />
<path d="M183022380 126709523
L183022380 126900000
L183070000 126995238
L183117619 127042857
L183260476 127138095
L183450952 127185714
L183831904 127185714
L183927142 127138095
L183974761 127090476
L184022380 126995238
L184022380 126804761
L183974761 126709523
L183927142 126661904
L183831904 126614285
L183593809 126614285
L183498571 126661904
L183450952 126709523
L183403333 126804761
L183403333 126995238
L183450952 127090476
L183498571 127138095
L183593809 127185714
" />
</g><text x="179630000.000000" y="126970000.000000"
textLength="2195000.000000" font-size="1333333.000000" lengthAdjust="spacingAndGlyphs"
text-anchor="middle" opacity="0">Q2</text>
<g class="stroked-text"><desc>Q2</desc>
<path d="M179534761 127017619
L179439523 126970000
L179344285 126874761
L179201428 126731904
L179106190 126684285
L179010952 126684285
" />
<path d="M179058571 126922380
L178963333 126874761
L178868095 126779523
L178820476 126589047
L178820476 126255714
L178868095 126065238
L178963333 125970000
L179058571 125922380
L179249047 125922380
L179344285 125970000
L179439523 126065238
L179487142 126255714
L179487142 126589047
L179439523 126779523
L179344285 126874761
L179249047 126922380
L179058571 126922380
" />
<path d="M179868095 126017619
L179915714 125970000
L180010952 125922380
L180249047 125922380
L180344285 125970000
L180391904 126017619
L180439523 126112857
L180439523 126208095
L180391904 126350952
L179820476 126922380
L180439523 126922380
" />
</g><text x="172400000.000000" y="120622500.000000"
textLength="1795000.000000" font-size="1066666.000000" lengthAdjust="spacingAndGlyphs"
text-anchor="middle" opacity="0">U5</text>
<g class="stroked-text"><desc>U5</desc>
<path d="M171790476 119784404
L171790476 120432023
L171828571 120508214
L171866666 120546309
L171942857 120584404
L172095238 120584404
L172171428 120546309
L172209523 120508214
L172247619 120432023
L172247619 119784404
" />
<path d="M173009523 119784404
L172628571 119784404
L172590476 120165357
L172628571 120127261
L172704761 120089166
L172895238 120089166
L172971428 120127261
L173009523 120165357
L173047619 120241547
L173047619 120432023
L173009523 120508214
L172971428 120546309
L172895238 120584404
L172704761 120584404
L172628571 120546309
L172590476 120508214
" />
</g><g transform="rotate(-90.000000 164700000.000000 113800000.000000)">
<text x="164700000.000000" y="114300000.000000"
textLength="3099762.000000" font-size="1333333.000000" lengthAdjust="spacingAndGlyphs"
text-anchor="middle" opacity="0">R13</text>
</g>
<g class="stroked-text"><desc>R13</desc>
<path d="M165152380 114442857
L164676190 114776190
" />
<path d="M165152380 115014285
L164152380 115014285
L164152380 114633333
L164200000 114538095
L164247619 114490476
L164342857 114442857
L164485714 114442857
L164580952 114490476
L164628571 114538095
L164676190 114633333
L164676190 115014285
" />
<path d="M165152380 113490476
L165152380 114061904
" />
<path d="M165152380 113776190
L164152380 113776190
L164295238 113871428
L164390476 113966666
L164438095 114061904
" />
<path d="M164152380 113157142
L164152380 112538095
L164533333 112871428
L164533333 112728571
L164580952 112633333
L164628571 112585714
L164723809 112538095
L164961904 112538095
L165057142 112585714
L165104761 112633333
L165152380 112728571
L165152380 113014285
L165104761 113109523
L165057142 113157142
" />
</g><text x="179400000.000000" y="97800000.000000"
textLength="1956905.000000" font-size="1333333.000000" lengthAdjust="spacingAndGlyphs"
text-anchor="middle" opacity="0">L2</text>
<g class="stroked-text"><desc>L2</desc>
<path d="M179233333 97752380
L178757142 97752380
L178757142 96752380
" />
<path d="M179519047 96847619
L179566666 96800000
L179661904 96752380
L179900000 96752380
L179995238 96800000
L180042857 96847619
L180090476 96942857
L180090476 97038095
L180042857 97180952
L179471428 97752380
L180090476 97752380
" />
</g><g transform="rotate(-90.000000 180600000.000000 120550000.000000)">
<text x="180600000.000000" y="121050000.000000"
textLength="2147381.000000" font-size="1333333.000000" lengthAdjust="spacingAndGlyphs"
text-anchor="middle" opacity="0">R8</text>
</g>
<g class="stroked-text"><desc>R8</desc>
<path d="M181052380 120716666
L180576190 121050000
" />
<path d="M181052380 121288095
L180052380 121288095
L180052380 120907142
L180100000 120811904
L180147619 120764285
L180242857 120716666
L180385714 120716666
L180480952 120764285
L180528571 120811904
L180576190 120907142
L180576190 121288095
" />
<path d="M180480952 120145238
L180433333 120240476
L180385714 120288095
L180290476 120335714
L180242857 120335714
L180147619 120288095
L180100000 120240476
L180052380 120145238
L180052380 119954761
L180100000 119859523
L180147619 119811904
L180242857 119764285
L180290476 119764285
L180385714 119811904
L180433333 119859523
L180480952 119954761
L180480952 120145238
L180528571 120240476
L180576190 120288095
L180671428 120335714
L180861904 120335714
L180957142 120288095
L181004761 120240476
L181052380 120145238
L181052380 119954761
L181004761 119859523
L180957142 119811904
L180861904 119764285
L180671428 119764285
L180576190 119811904
L180528571 119859523
L180480952 119954761
" />
</g><g transform="rotate(-90.000000 164650000.000000 106525000.000000)">
<text x="164650000.000000" y="107025000.000000"
textLength="2195000.000000" font-size="1333333.000000" lengthAdjust="spacingAndGlyphs"
text-anchor="middle" opacity="0">U6</text>
</g>
<g class="stroked-text"><desc>U6</desc>
<path d="M164102380 107286904
L164911904 107286904
L165007142 107239285
L165054761 107191666
L165102380 107096428
L165102380 106905952
L165054761 106810714
L165007142 106763095
L164911904 106715476
L164102380 106715476
" />
<path d="M164102380 105810714
L164102380 106001190
L164150000 106096428
L164197619 106144047
L164340476 106239285
L164530952 106286904
L164911904 106286904
L165007142 106239285
L165054761 106191666
L165102380 106096428
L165102380 105905952
L165054761 105810714
L165007142 105763095
L164911904 105715476
L164673809 105715476
L164578571 105763095
L164530952 105810714
L164483333 105905952
L164483333 106096428
L164530952 106191666
L164578571 106239285
L164673809 106286904
" />
</g><g transform="rotate(-90.000000 187300000.000000 112525000.000000)">
<text x="187300000.000000" y="113025000.000000"
textLength="3242619.000000" font-size="1333333.000000" lengthAdjust="spacingAndGlyphs"
text-anchor="middle" opacity="0">SW1</text>
</g>
<g class="stroked-text"><desc>SW1</desc>
<path d="M187704761 113858333
L187752380 113715476
L187752380 113477380
L187704761 113382142
L187657142 113334523
L187561904 113286904
L187466666 113286904
L187371428 113334523
L187323809 113382142
L187276190 113477380
L187228571 113667857
L187180952 113763095
L187133333 113810714
L187038095 113858333
L186942857 113858333
L186847619 113810714
L186800000 113763095
L186752380 113667857
L186752380 113429761
L186800000 113286904
" />
<path d="M186752380 112953571
L187752380 112715476
L187038095 112525000
L187752380 112334523
L186752380 112096428
" />
<path d="M187752380 111191666
L187752380 111763095
" />
<path d="M187752380 111477380
L186752380 111477380
L186895238 111572619
L186990476 111667857
L187038095 111763095
" />
</g><g transform="rotate(-90.000000 188620000.000000 127400000.000000)">
<text x="188620000.000000" y="127900000.000000"
textLength="2147381.000000" font-size="1333333.000000" lengthAdjust="spacingAndGlyphs"
text-anchor="middle" opacity="0">R5</text>
</g>
<g class="stroked-text"><desc>R5</desc>
<path d="M189072380 127566666
L188596190 127900000
" />
<path d="M189072380 128138095
L188072380 128138095
L188072380 127757142
L188120000 127661904
L188167619 127614285
L188262857 127566666
L188405714 127566666
L188500952 127614285
L188548571 127661904
L188596190 127757142
L188596190 128138095
" />
<path d="M188072380 126661904
L188072380 127138095
L188548571 127185714
L188500952 127138095
L188453333 127042857
L188453333 126804761
L188500952 126709523
L188548571 126661904
L188643809 126614285
L188881904 126614285
L188977142 126661904
L189024761 126709523
L189072380 126804761
L189072380 127042857
L189024761 127138095
L188977142 127185714
" />
</g><g transform="rotate(-90.000000 164750000.000000 126150000.000000)">
<text x="164750000.000000" y="126650000.000000"
textLength="2147381.000000" font-size="1333333.000000" lengthAdjust="spacingAndGlyphs"
text-anchor="middle" opacity="0">C9</text>
</g>
<g class="stroked-text"><desc>C9</desc>
<path d="M165107142 126316666
L165154761 126364285
L165202380 126507142
L165202380 126602380
L165154761 126745238
L165059523 126840476
L164964285 126888095
L164773809 126935714
L164630952 126935714
L164440476 126888095
L164345238 126840476
L164250000 126745238
L164202380 126602380
L164202380 126507142
L164250000 126364285
L164297619 126316666
" />
<path d="M165202380 125840476
L165202380 125650000
L165154761 125554761
L165107142 125507142
L164964285 125411904
L164773809 125364285
L164392857 125364285
L164297619 125411904
L164250000 125459523
L164202380 125554761
L164202380 125745238
L164250000 125840476
L164297619 125888095
L164392857 125935714
L164630952 125935714
L164726190 125888095
L164773809 125840476
L164821428 125745238
L164821428 125554761
L164773809 125459523
L164726190 125411904
L164630952 125364285
" />
</g><text x="179685000.000000" y="123700000.000000"
textLength="3099762.000000" font-size="1333333.000000" lengthAdjust="spacingAndGlyphs"
text-anchor="middle" opacity="0">C15</text>
<g class="stroked-text"><desc>C15</desc>
<path d="M179042142 123557142
L178994523 123604761
L178851666 123652380
L178756428 123652380
L178613571 123604761
L178518333 123509523
L178470714 123414285
L178423095 123223809
L178423095 123080952
L178470714 122890476
L178518333 122795238
L178613571 122700000
L178756428 122652380
L178851666 122652380
L178994523 122700000
L179042142 122747619
" />
<path d="M179994523 123652380
L179423095 123652380
" />
<path d="M179708809 123652380
L179708809 122652380
L179613571 122795238
L179518333 122890476
L179423095 122938095
" />
<path d="M180899285 122652380
L180423095 122652380
L180375476 123128571
L180423095 123080952
L180518333 123033333
L180756428 123033333
L180851666 123080952
L180899285 123128571
L180946904 123223809
L180946904 123461904
L180899285 123557142
L180851666 123604761
L180756428 123652380
L180518333 123652380
L180423095 123604761
L180375476 123557142
" />
</g><text x="184250000.000000" y="100400000.000000"
textLength="2147381.000000" font-size="1333333.000000" lengthAdjust="spacingAndGlyphs"
text-anchor="middle" opacity="0">C6</text>
<g class="stroked-text"><desc>C6</desc>
<path d="M184083333 100257142
L184035714 100304761
L183892857 100352380
L183797619 100352380
L183654761 100304761
L183559523 100209523
L183511904 100114285
L183464285 99923809
L183464285 99780952
L183511904 99590476
L183559523 99495238
L183654761 99400000
L183797619 99352380
L183892857 99352380
L184035714 99400000
L184083333 99447619
" />
<path d="M184940476 99352380
L184750000 99352380
L184654761 99400000
L184607142 99447619
L184511904 99590476
L184464285 99780952
L184464285 100161904
L184511904 100257142
L184559523 100304761
L184654761 100352380
L184845238 100352380
L184940476 100304761
L184988095 100257142
L185035714 100161904
L185035714 99923809
L184988095 99828571
L184940476 99780952
L184845238 99733333
L184654761 99733333
L184559523 99780952
L184511904 99828571
L184464285 99923809
" />
</g><g transform="rotate(-90.000000 163450000.000000 123850000.000000)">
<text x="163450000.000000" y="124350000.000000"
textLength="3099762.000000" font-size="1333333.000000" lengthAdjust="spacingAndGlyphs"
text-anchor="middle" opacity="0">C10</text>
</g>
<g class="stroked-text"><desc>C10</desc>
<path d="M163807142 124492857
L163854761 124540476
L163902380 124683333
L163902380 124778571
L163854761 124921428
L163759523 125016666
L163664285 125064285
L163473809 125111904
L163330952 125111904
L163140476 125064285
L163045238 125016666
L162950000 124921428
L162902380 124778571
L162902380 124683333
L162950000 124540476
L162997619 124492857
" />
<path d="M163902380 123540476
L163902380 124111904
" />
<path d="M163902380 123826190
L162902380 123826190
L163045238 123921428
L163140476 124016666
L163188095 124111904
" />
<path d="M162902380 122921428
L162902380 122826190
L162950000 122730952
L162997619 122683333
L163092857 122635714
L163283333 122588095
L163521428 122588095
L163711904 122635714
L163807142 122683333
L163854761 122730952
L163902380 122826190
L163902380 122921428
L163854761 123016666
L163807142 123064285
L163711904 123111904
L163521428 123159523
L163283333 123159523
L163092857 123111904
L162997619 123064285
L162950000 123016666
L162902380 122921428
" />
</g><text x="186300000.000000" y="116095000.000000"
textLength="2147381.000000" font-size="1333333.000000" lengthAdjust="spacingAndGlyphs"
text-anchor="middle" opacity="0">R3</text>
<g class="stroked-text"><desc>R3</desc>
<path d="M186133333 116047380
L185800000 115571190
" />
<path d="M185561904 116047380
L185561904 115047380
L185942857 115047380
L186038095 115095000
L186085714 115142619
L186133333 115237857
L186133333 115380714
L186085714 115475952
L186038095 115523571
L185942857 115571190
L185561904 115571190
" />
<path d="M186466666 115047380
L187085714 115047380
L186752380 115428333
L186895238 115428333
L186990476 115475952
L187038095 115523571
L187085714 115618809
L187085714 115856904
L187038095 115952142
L186990476 115999761
L186895238 116047380
L186609523 116047380
L186514285 115999761
L186466666 115952142
" />
</g><text x="173800000.000000" y="98300000.000000"
textLength="2147381.000000" font-size="1333333.000000" lengthAdjust="spacingAndGlyphs"
text-anchor="middle" opacity="0">C1</text>
<g class="stroked-text"><desc>C1</desc>
<path d="M173633333 98157142
L173585714 98204761
L173442857 98252380
L173347619 98252380
L173204761 98204761
L173109523 98109523
L173061904 98014285
L173014285 97823809
L173014285 97680952
L173061904 97490476
L173109523 97395238
L173204761 97300000
L173347619 97252380
L173442857 97252380
L173585714 97300000
L173633333 97347619
" />
<path d="M174585714 98252380
L174014285 98252380
" />
<path d="M174300000 98252380
L174300000 97252380
L174204761 97395238
L174109523 97490476
L174014285 97538095
" />
</g><g transform="rotate(-90.000000 189400000.000000 121650000.000000)">
<text x="189400000.000000" y="122150000.000000"
textLength="2195000.000000" font-size="1333333.000000" lengthAdjust="spacingAndGlyphs"
text-anchor="middle" opacity="0">U1</text>
</g>
<g class="stroked-text"><desc>U1</desc>
<path d="M188852380 122411904
L189661904 122411904
L189757142 122364285
L189804761 122316666
L189852380 122221428
L189852380 122030952
L189804761 121935714
L189757142 121888095
L189661904 121840476
L188852380 121840476
" />
<path d="M189852380 120840476
L189852380 121411904
" />
<path d="M189852380 121126190
L188852380 121126190
L188995238 121221428
L189090476 121316666
L189138095 121411904
" />
</g><g transform="rotate(-90.000000 169750000.000000 120350000.000000)">
<text x="169750000.000000" y="120850000.000000"
textLength="2195000.000000" font-size="1333333.000000" lengthAdjust="spacingAndGlyphs"
text-anchor="middle" opacity="0">U3</text>
</g>
<g class="stroked-text"><desc>U3</desc>
<path d="M169202380 121111904
L170011904 121111904
L170107142 121064285
L170154761 121016666
L170202380 120921428
L170202380 120730952
L170154761 120635714
L170107142 120588095
L170011904 120540476
L169202380 120540476
" />
<path d="M169202380 120159523
L169202380 119540476
L169583333 119873809
L169583333 119730952
L169630952 119635714
L169678571 119588095
L169773809 119540476
L170011904 119540476
L170107142 119588095
L170154761 119635714
L170202380 119730952
L170202380 120016666
L170154761 120111904
L170107142 120159523
" />
</g><text x="181825000.000000" y="97600000.000000"
textLength="2147381.000000" font-size="1333333.000000" lengthAdjust="spacingAndGlyphs"
text-anchor="middle" opacity="0">C8</text>
<g class="stroked-text"><desc>C8</desc>
<path d="M181658333 97457142
L181610714 97504761
L181467857 97552380
L181372619 97552380
L181229761 97504761
L181134523 97409523
L181086904 97314285
L181039285 97123809
L181039285 96980952
L181086904 96790476
L181134523 96695238
L181229761 96600000
L181372619 96552380
L181467857 96552380
L181610714 96600000
L181658333 96647619
" />
<path d="M182229761 96980952
L182134523 96933333
L182086904 96885714
L182039285 96790476
L182039285 96742857
L182086904 96647619
L182134523 96600000
L182229761 96552380
L182420238 96552380
L182515476 96600000
L182563095 96647619
L182610714 96742857
L182610714 96790476
L182563095 96885714
L182515476 96933333
L182420238 96980952
L182229761 96980952
L182134523 97028571
L182086904 97076190
L182039285 97171428
L182039285 97361904
L182086904 97457142
L182134523 97504761
L182229761 97552380
L182420238 97552380
L182515476 97504761
L182563095 97457142
L182610714 97361904
L182610714 97171428
L182563095 97076190
L182515476 97028571
L182420238 96980952
" />
</g><text x="174850000.000000" y="126600000.000000"
textLength="2195000.000000" font-size="1333333.000000" lengthAdjust="spacingAndGlyphs"
text-anchor="middle" opacity="0">U7</text>
<g class="stroked-text"><desc>U7</desc>
<path d="M174088095 125552380
L174088095 126361904
L174135714 126457142
L174183333 126504761
L174278571 126552380
L174469047 126552380
L174564285 126504761
L174611904 126457142
L174659523 126361904
L174659523 125552380
" />
<path d="M175040476 125552380
L175707142 125552380
L175278571 126552380
" />
</g></g>
<g style="fill:#000000; fill-opacity:0.0; 
stroke:#000000; stroke-width:120000.000000; stroke-opacity:1; 
stroke-linecap:round; stroke-linejoin:round;">
<path d="M165187258 131827500
L164712742 131827500
" />
<path d="M165187258 132872500
L164712742 132872500
" />
<path d="M164900000 131160000
L164250000 131160000
" />
<path d="M164900000 128040000
L164250000 128040000
" />
<path d="M164900000 131160000
L166575000 131160000
" />
<path d="M164900000 128040000
L165550000 128040000
" />
<path d="M169162742 110777500
L169637258 110777500
" />
<path d="M169162742 111822500
L169637258 111822500
" />
<path d="M166750000 136960000
L166750000 138960000
" />
<path d="M166750000 140860000
L166750000 142760000
" />
<path d="M176150000 136960000
L176150000 138960000
" />
<path d="M176150000 140860000
L176150000 142760000
" />
<path d="M166750000 142760000
L176150000 142760000
" />
<path d="M167750000 128450000
L167750000 132350000
" />
<path d="M169750000 128450000
L169750000 132350000
" />
<path d="M169750000 128450000
L167750000 128450000
" />
<path d="M185885000 126840000
L184415000 126840000
" />
<path d="M185885000 129125000
L185885000 126840000
" />
<path d="M184415000 126840000
L184415000 129125000
" />
<path d="M186087258 105077500
L185612742 105077500
" />
<path d="M186087258 106122500
L185612742 106122500
" />
<path d="M169127500 100337742
L169127500 100812258
" />
<path d="M170172500 100337742
L170172500 100812258
" />
<path d="M171810000 126484420
L171810000 126765580
" />
<path d="M170790000 126484420
L170790000 126765580
" />
<path d="M167440000 100715580
L167440000 100434420
" />
<path d="M168460000 100715580
L168460000 100434420
" />
<path d="M176200279 96510000
L175874721 96510000
" />
<path d="M176200279 95490000
L175874721 95490000
" />
<path d="M186165000 126890000
L186165000 129175000
" />
<path d="M187635000 126890000
L186165000 126890000
" />
<path d="M187635000 129175000
L187635000 126890000
" />
<path d="M185990000 134640000
L185990000 136240000
" />
<path d="M187010000 134640000
L185990000 134640000
" />
<path d="M181190000 136240000
L181190000 133350000
" />
<path d="M187010000 138890000
L187010000 134640000
" />
<path d="M180610000 142460000
L185290000 142460000
" />
<path d="M178890000 134640000
L179910000 134640000
" />
<path d="M178890000 138890000
L178890000 134640000
" />
<path d="M179910000 134640000
L179910000 136240000
" />
<path d="M185990000 136240000
L184710000 136240000
" />
<path d="M179910000 136240000
L181190000 136240000
" />
<path d="M171822500 100787258
L171822500 100312742
" />
<path d="M170777500 100787258
L170777500 100312742
" />
<path d="M185615580 109210000
L185334420 109210000
" />
<path d="M185615580 108190000
L185334420 108190000
" />
<path d="M167409420 117735000
L167690580 117735000
" />
<path d="M167409420 116715000
L167690580 116715000
" />
<path d="M173790000 100715580
L173790000 100434420
" />
<path d="M174810000 100715580
L174810000 100434420
" />
<path d="M164085000 111550000
L164085000 109265000
" />
<path d="M162615000 109265000
L162615000 111550000
" />
<path d="M164085000 109265000
L162615000 109265000
" />
<path d="M185709420 103490000
L185990580 103490000
" />
<path d="M185709420 104510000
L185990580 104510000
" />
<path d="M176250000 117375000
L178975000 117375000
" />
<path d="M178975000 117375000
L178975000 117115000
" />
<path d="M178975000 111925000
L178975000 112185000
" />
<path d="M176250000 117375000
L173525000 117375000
" />
<path d="M176250000 111925000
L178975000 111925000
" />
<path d="M176250000 111925000
L173525000 111925000
" />
<path d="M173525000 112185000
L171850000 112185000
" />
<path d="M173525000 117375000
L173525000 117115000
" />
<path d="M173525000 111925000
L173525000 112185000
" />
<path d="M182045580 100990000
L181764420 100990000
" />
<path d="M182045580 102010000
L181764420 102010000
" />
<path d="M172684420 96560000
L172965580 96560000
" />
<path d="M172684420 95540000
L172965580 95540000
" />
<path d="M180400000 105350000
L180400000 109350000
" />
<path d="M183700000 105350000
L180400000 105350000
" />
<path d="M182065580 103840000
L181784420 103840000
" />
<path d="M182065580 104860000
L181784420 104860000
" />
<path d="M171910000 103840000
L171910000 103290000
" />
<path d="M178130000 109510000
L177580000 109510000
" />
<path d="M178130000 108960000
L178130000 109510000
" />
<path d="M171910000 109510000
L172460000 109510000
" />
<path d="M171910000 103290000
L172460000 103290000
" />
<path d="M171910000 108960000
L171910000 109510000
" />
<path d="M178130000 103840000
L178130000 103290000
" />
<path d="M164950000 100525000
L164950000 104525000
" />
<path d="M164950000 104525000
L164650000 104525000
" />
<path d="M162450000 100525000
L162150000 100525000
" />
<path d="M162150000 104525000
L162450000 104525000
" />
<path d="M162150000 100525000
L162150000 104525000
" />
<path d="M164650000 100525000
L164950000 100525000
" />
<path d="M176422500 100337742
L176422500 100812258
" />
<path d="M175377500 100337742
L175377500 100812258
" />
<path d="M165010000 120411252
L165010000 118988748
" />
<path d="M163190000 120411252
L163190000 118988748
" />
<path d="M184042500 129737742
L184042500 130212258
" />
<path d="M182997500 129737742
L182997500 130212258
" />
<path d="M180330000 127310000
L178430000 127310000
" />
<path d="M178930000 129630000
L180330000 129630000
" />
</g>
<g style="fill:#000000; fill-opacity:0.0; 
stroke:#000000; stroke-width:127000.000000; stroke-opacity:1; 
stroke-linecap:round; stroke-linejoin:round;">
<path d="M178160000 118292500
L173440000 118292500
" />
<path d="M178160000 122052500
L173440000 122052500
" />
<path d="M173440000 118292500
L173440000 119422500
" />
<path d="M173440000 120922500
L173440000 122052500
" />
<path d="M178160000 118292500
L178160000 122052500
" />
</g>
<g style="fill:#000000; fill-opacity:0.0; 
stroke:#000000; stroke-width:200000.000000; stroke-opacity:1; 
stroke-linecap:round; stroke-linejoin:round;">
<circle cx="177670000.000000" cy="117772500.000000" r="100000.000000" /> 
</g>
<g style="fill:#000000; fill-opacity:0.0; 
stroke:#000000; stroke-width:120000.000000; stroke-opacity:1; 
stroke-linecap:round; stroke-linejoin:round;">
<path d="M163872500 114162258
L163872500 113687742
" />
<path d="M162827500 114162258
L162827500 113687742
" />
<path d="M178895000 99562779
L178895000 99237221
" />
<path d="M179915000 99562779
L179915000 99237221
" />
<path d="M178777500 120862258
L178777500 120387742
" />
<path d="M179822500 120862258
L179822500 120387742
" />
<path d="M170560000 106350000
L170560000 102900000
" />
<path d="M165440000 106350000
L165440000 108300000
" />
<path d="M165440000 106350000
L165440000 104400000
" />
<path d="M170560000 106350000
L170560000 108300000
" />
<path d="M191200000 114525000
L191200000 110525000
" />
<path d="M188700000 114525000
L188400000 114525000
" />
<path d="M188400000 114525000
L188400000 110525000
" />
<path d="M190900000 114525000
L191200000 114525000
" />
<path d="M191200000 110525000
L190900000 110525000
" />
<path d="M188400000 110525000
L188700000 110525000
" />
<path d="M189042500 129787742
L189042500 130262258
" />
<path d="M187997500 129787742
L187997500 130262258
" />
<path d="M166838748 127022500
L168261252 127022500
" />
<path d="M166838748 125202500
L168261252 125202500
" />
<path d="M176634420 123810000
L176915580 123810000
" />
<path d="M176634420 122790000
L176915580 122790000
" />
<path d="M182015580 99390000
L181734420 99390000
" />
<path d="M182015580 100410000
L181734420 100410000
" />
<path d="M165740580 124260000
L165459420 124260000
" />
<path d="M165740580 123240000
L165459420 123240000
" />
<path d="M186062742 116502500
L186537258 116502500
" />
<path d="M186062742 117547500
L186537258 117547500
" />
<path d="M175934420 98310000
L176215580 98310000
" />
<path d="M175934420 97290000
L176215580 97290000
" />
<path d="M188610000 121750000
L188610000 123700000
" />
<path d="M183490000 121750000
L183490000 119800000
" />
<path d="M188610000 121750000
L188610000 118300000
" />
<path d="M183490000 121750000
L183490000 123700000
" />
<path d="M168960000 120487500
L168960000 121287500
" />
<path d="M165840000 120487500
L165840000 119687500
" />
<path d="M165840000 120487500
L165840000 122287500
" />
<path d="M168960000 120487500
L168960000 119687500
" />
<path d="M182045580 97840000
L181764420 97840000
" />
<path d="M182045580 98860000
L181764420 98860000
" />
<path d="M176960000 131510000
L176960000 131035000
" />
<path d="M176485000 131510000
L176960000 131510000
" />
<path d="M176960000 127290000
L176960000 127765000
" />
<path d="M173215000 127290000
L172740000 127290000
" />
<path d="M173215000 131510000
L172740000 131510000
" />
<path d="M176485000 127290000
L176960000 127290000
" />
<path d="M172740000 131510000
L172740000 131035000
" />
<g >
</g>
<g >
</g>
<g >
</g>
<g >
</g>
<g >
</g>
<g >
</g>
<g >
</g>
<g >
</g>
<g >
</g>
<g >
</g>
<g >
</g>
<g >
</g>
<g >
</g>
<g >
</g>
<g >
</g>
<g >
</g>
<g >
</g>
<g >
</g>
<g >
</g>
<g >
</g>
<g >
</g>
<g >
</g>
<g >
</g>
<g >
</g>
<g >
</g>
<g >
</g>
<g >
</g>
<g >
</g>
<g >
</g>
<g >
</g>
<g >
</g>
<g >
</g>
<g >
</g>
<g >
</g>
<g >
</g>
<g >
</g>
<g >
</g>
<g >
</g>
<g >
</g>
<g >
</g>
<g >
</g>
<g >
</g>
<g >
</g>
<g >
</g>
<g >
</g>
<g >
</g>
<g >
</g>
<g >
</g>
<g >
</g>
<g >
</g>
<g >
</g>
<g >
</g>
<g >
</g>
<g >
</g>
<g >
</g>
<g >
</g>
</g> 
</svg>
